<?xml version="1.0" encoding="UTF-8"?>
<svg width="1200pt" height="1200pt" version="1.1" viewBox="0 0 1200 1200" xmlns="http://www.w3.org/2000/svg">
 <g fill="#12b0fb">
  <path d="m985.06 394.09h-708.17v332.07h708.17zm27.176-13.742v359.55c0 7.2773-6.1562 13.434-13.434 13.434l-735.38 0.003906c-7.5547 0-13.438-6.1562-13.438-13.434v-359.55c0-7.2773 5.8828-13.461 13.438-13.461h735.37c7.2773 0 13.438 6.1836 13.438 13.461z"/>
  <path d="m549.27 636.2 186.36-101.72c6.4609-3.6406 14.836-1.1211 18.5 5.6094 3.3359 6.4297 1.1211 14.562-5.5859 18.199l-186.38 101.45c-6.4453 3.6406-14.574 1.125-18.215-5.3047-3.3633-6.4609-1.1211-14.863 5.3242-18.23z"/>
  <path d="m776.27 470.03c3.6406 6.4297 1.1211 14.832-5.3359 18.473l-186.36 101.45c-6.4297 3.6406-14.844 1.1211-18.199-5.3125-3.6523-6.7305-1.1211-14.859 5.3125-18.5l186.38-101.45c6.4062-3.6406 14.559-1.1211 18.199 5.3398z"/>
  <path d="m1084.8 870.77c0.82031 20.445 1.9141 51.559-8.9805 63.906l-1.6953 1.668-49.043 38.668c-2.2422 1.9688-5.0312 3.0898-8.1289 3.0898h-122.74l-652.12 0.003906c-3.0898 0-6.1562-1.1211-8.6875-3.0898l-43.16-35.883c-3.0781-2.2422-5.0469-5.582-5.5977-9.5234-2.5312-23.262-6.1719-47.645-7.8555-71.184 0-8.6758 3.9258-16.801 9.8125-22.684 5.5938-5.6133 13.449-9.2539 21.578-10.098l3.9141-0.55078 837.37-0.003906c9.5234 0 18.473 4.1875 24.934 10.375 6.1836 6.4297 10.398 15.402 10.398 24.93l0.003906 10.375zm-28.902 45.402c3.3945-5.6094 2.5156-28.867 1.9727-44.281l-0.27734-11.496c0-2.2422-1.1211-4.2109-2.5156-5.6055-1.4219-1.3984-3.6641-2.5195-5.6094-2.5195h-838.2c-2.2305 0.27344-4.1992 1.3945-5.5977 2.793-1.1211 1.1211-1.6953 2.2422-1.6953 3.3672 0 16.258 5.0586 45.133 7.0039 62.785l35.879 29.992h765.04z"/>
  <path d="m1186.8 760.64c8.1562 8.4023 13.191 19.898 13.191 32.211 0 12.891-5.3125 24.383-13.738 32.789l-0.27344 0.57422c-8.4297 8.1289-19.922 13.16-32.516 13.16-12.59 0-24.086-5.3359-32.512-13.465l-0.54688-0.54297c-8.1562-8.4023-13.191-19.898-13.191-32.516 0-12.613 5.3359-24.109 13.738-32.512l0.27344-0.54688c8.4297-8.1289 19.922-13.164 32.234-13.164 12.891 0 24.359 5.3047 32.785 13.711zm-14.008 32.211c0-5.0352-2.2461-10.098-5.5859-13.434-3.3945-3.3672-8.4297-5.6094-13.738-5.6094-5.0352 0-10.07 2.2461-13.465 5.6094-3.6133 3.3359-5.582 8.3984-5.582 13.434 0 5.3359 1.9727 10.375 5.582 13.742 3.3945 3.6367 8.4297 5.6055 13.465 5.6055 5.3125 0 10.344-1.9688 13.738-5.6055 3.3398-3.3672 5.5859-8.4023 5.5859-13.742z"/>
  <path d="m1062.9 372.22v375.81c0 15.406-6.4297 29.422-16.531 39.52-10.07 10.07-24.086 16.227-39.52 16.227h-751.6c-15.406 0-29.418-6.1562-39.504-16.227-10.086-10.098-16.543-24.113-16.543-39.52v-375.81c0-15.406 6.457-29.422 16.543-39.52 10.086-10.098 24.098-16.531 39.504-16.531h751.6c15.438 0 29.449 6.4297 39.52 16.531 10.098 10.098 16.531 24.109 16.531 39.52zm-27.152 375.8v-375.8c0-7.8516-3.3906-15.133-8.4297-20.469-5.3125-5.0352-12.59-8.4023-20.473-8.4023h-751.59c-7.8398 0-15.133 3.3672-20.445 8.4023-5.3359 5.3359-8.4141 12.617-8.4141 20.469v375.81c0 7.8281 3.0781 15.137 8.4141 20.168 5.3125 5.3359 12.602 8.6758 20.445 8.6758h751.6c7.8828 0 15.164-3.3398 20.473-8.6758 5.0391-5.0352 8.4258-12.344 8.4258-20.172z"/>
  <path d="m1008 1136.1c7.5547 0 13.438 6.1602 13.438 13.465 0 7.5547-5.8867 13.711-13.438 13.711h-70.332c-7.6055 0-13.738-6.1562-13.738-13.711 0-7.3047 6.1328-13.465 13.738-13.465z"/>
  <path d="m960.95 1172.3c7.582 0 13.434 6.1602 13.434 13.738 0 7.2773-5.8516 13.434-13.434 13.434h-150.77c-7.2812 0-13.465-6.1562-13.465-13.434 0-7.5781 6.1836-13.738 13.465-13.738z"/>
  <path d="m946.36 183.61c6.457 3.6406 8.7031 12.066 5.0625 18.5-1.3984 2.2461-3.0898 3.9414-5.0625 4.7617l-49.32 28.598c-6.457 3.9102-14.555 1.668-18.5-4.7617-3.6133-6.457-1.3711-14.859 5.0352-18.5l29.172-16.832-29.172-16.801c-6.4062-3.6406-8.6445-12.039-5.0352-18.5 3.9453-6.4297 12.043-8.6758 18.5-4.7617z"/>
  <path d="m686.32 892.06v19.348c0 6.1602-2.5156 11.77-6.7344 15.684l-1.0977 1.3945c-3.9414 3.0898-9.2461 5.3359-14.609 5.3359h-65.559c-6.1562 0-11.77-2.5156-15.695-6.7305-4.2031-3.9141-6.7188-9.5234-6.7188-15.684v-19.348c0-6.4336 2.5156-12.043 6.4336-15.984l1.4062-1.1211c3.9297-3.3359 8.9648-5.3047 14.574-5.3047h65.559c5.9102 0 11.77 2.5156 15.707 6.4258 4.2188 3.9414 6.7344 9.5508 6.7344 15.984zm-27.203 14.59v-10.098h-56.035v10.098z"/>
  <path d="m384.23 44.332c1.9414 7.2773-2.2461 14.586-9.5352 16.531l-24.098 6.4609c-7.293 1.9414-14.586-2.2461-16.531-9.5234-1.9688-7.3086 2.2305-14.59 9.5234-16.555l24.098-6.4297c7.2891-1.9805 14.57 2.2344 16.543 9.5156z"/>
  <path d="m346.95 1070.9c6.4297 6.7344 10.645 15.406 10.645 25.508 0 9.7969-4.2148 19.047-10.645 25.508-6.4609 6.4258-15.426 10.367-25.234 10.367-10.086 0-19.047-3.9414-25.504-10.367-6.4336-6.4648-10.645-15.711-10.645-25.508 0-10.098 4.2148-18.773 10.645-25.508 6.457-6.4336 15.418-10.375 25.504-10.375 9.8125 0 18.777 3.9375 25.234 10.375zm-16.543 25.504c0-2.2422-1.1211-4.7617-2.5195-6.1602-1.6836-1.6953-3.9258-2.8164-6.1719-2.8164-2.5156 0-4.7617 1.1211-6.4453 2.8164-1.3945 1.3984-2.5156 3.918-2.5156 6.1602 0 2.2461 1.1211 4.7617 2.5156 6.1562 1.6836 1.7031 3.9297 2.5234 6.4453 2.5234 2.2461 0 4.4883-0.82422 6.1719-2.5234 1.3984-1.3945 2.5195-3.9102 2.5195-6.1562z"/>
  <path d="m350.59 102.62c1.9531 7.2773-2.2422 14.859-9.5234 16.531-7.293 1.9688-14.586-2.2422-16.543-9.5234l-6.4453-23.539c-1.9688-7.2734 2.5195-14.586 9.8125-16.527 7.0039-1.9727 14.301 2.5156 16.527 9.5234z"/>
  <path d="m332.09 33.109c1.9688 7.3086-2.5195 14.863-9.5234 16.832-7.293 1.9727-14.859-2.5156-16.82-9.5234l-5.8828-22.715c-1.957-7.2734 2.2305-14.559 9.5234-16.801 7.293-1.6953 14.574 2.5156 16.543 9.8008z"/>
  <path d="m316.95 62.258c1.9727 7.3086-2.5156 14.863-9.7969 16.832l-24.383 6.4297c-7.293 1.9727-14.859-2.2422-16.543-9.5234-1.9531-7.2734 2.2461-14.559 9.5391-16.531l24.66-6.7305c7-1.9453 14.555 2.5156 16.523 9.5234z"/>
  <path d="m77.355 454.05 7.5547 24.383-26.055 7.8555-7.2812-24.387z"/>
  <path d="m58.855 486.29 7.2773 24.355-25.777 7.582-7.2812-24.383z"/>
  <path d="m44.281 437.52 7.293 24.383-25.777 7.832-7.293-24.359z"/>
  <path d="m25.797 469.73 7.2773 24.109-25.777 7.8516-7.2969-24.383z"/>
 </g>
</svg>
