<?xml version="1.0" encoding="UTF-8"?>
<svg width="1200pt" height="1200pt" version="1.1" viewBox="0 0 1200 1200" xmlns="http://www.w3.org/2000/svg">
 <g fill="#12b0fb">
  <path d="m1016.7 166.67h-833.34c-22.094 0.023437-43.273 8.8125-58.895 24.434-15.625 15.625-24.41 36.805-24.438 58.898v550c0.027344 22.094 8.8125 43.273 24.438 58.898 15.621 15.621 36.801 24.41 58.895 24.434h833.34c22.094-0.023437 43.273-8.8125 58.895-24.434 15.625-15.625 24.41-36.805 24.438-58.898v-550c-0.027344-22.094-8.8125-43.273-24.438-58.898-15.621-15.621-36.801-24.41-58.895-24.434zm50 633.33c-0.015625 13.258-5.2891 25.965-14.66 35.34-9.375 9.375-22.086 14.645-35.34 14.66h-833.34c-13.254-0.015625-25.965-5.2852-35.34-14.66-9.3711-9.375-14.645-22.082-14.66-35.34v-550c0.015625-13.258 5.2891-25.965 14.66-35.34 9.375-9.375 22.086-14.645 35.34-14.66h833.34c13.254 0.015625 25.965 5.2852 35.34 14.66 9.3711 9.375 14.645 22.082 14.66 35.34z"/>
  <path d="m1083.3 900h-350c-4.418 0-8.6562 1.7578-11.781 4.8828l-28.453 28.449h-186.2l-28.449-28.449h-0.003906c-3.125-3.125-7.3633-4.8828-11.781-4.8828h-350c-4.4219 0-8.6602 1.7578-11.785 4.8828s-4.8828 7.3633-4.8828 11.785c0.035156 30.93 12.336 60.586 34.211 82.457 21.871 21.871 51.523 34.172 82.457 34.207h766.66c30.934-0.035156 60.586-12.34 82.457-34.211 21.871-21.871 34.176-51.523 34.211-82.453 0-4.4219-1.7539-8.6602-4.8789-11.789-3.1289-3.125-7.3672-4.8789-11.789-4.8789zm-100 100h-766.66c-19.203-0.023438-37.809-6.668-52.684-18.812s-25.109-29.047-28.973-47.855h324.75l28.449 28.449v0.003906c3.125 3.125 7.3633 4.8789 11.785 4.8828h200c4.4219 0 8.6602-1.7578 11.785-4.8828l28.449-28.453h324.75c-3.8633 18.809-14.098 35.711-28.973 47.855s-33.48 18.789-52.684 18.812z"/>
  <path d="m983.33 233.33h-766.66c-13.258 0.015625-25.969 5.2891-35.34 14.66-9.375 9.375-14.648 22.086-14.66 35.34v483.34c0.011719 13.254 5.2852 25.965 14.66 35.34 9.3711 9.3711 22.082 14.645 35.34 14.66h766.66c13.258-0.015625 25.969-5.2891 35.34-14.66 9.375-9.375 14.648-22.086 14.66-35.34v-483.34c-0.011719-13.254-5.2852-25.965-14.66-35.34-9.3711-9.3711-22.082-14.645-35.34-14.66zm16.668 533.33v0.003907c-0.003906 4.418-1.7617 8.6523-4.8867 11.777s-7.3594 4.8828-11.781 4.8867h-766.66c-4.418-0.003906-8.6562-1.7617-11.781-4.8867s-4.8828-7.3594-4.8867-11.777v-483.34c0.003906-4.418 1.7617-8.6523 4.8867-11.777s7.3633-4.8828 11.781-4.8867h766.66c4.4219 0.003906 8.6562 1.7617 11.781 4.8867s4.8828 7.3594 4.8867 11.777z"/>
  <path d="m611.79 304.88c-3.125-3.125-7.3672-4.8828-11.785-4.8828-4.4219 0-8.6602 1.7578-11.785 4.8828l-200 200c-3.1562 3.1172-4.9414 7.3672-4.9531 11.805-0.015625 4.4375 1.7422 8.6992 4.8789 11.836 3.1406 3.1406 7.3984 4.8945 11.836 4.8828 4.4414-0.015625 8.6875-1.7969 11.809-4.957l200-200c3.125-3.125 4.8789-7.3633 4.8789-11.781 0-4.4219-1.7539-8.6602-4.8789-11.785z"/>
  <path d="m671.55 421.55-233.33 233.33h-0.003906c-3.1719 3.1172-4.9648 7.3711-4.9844 11.816-0.023438 4.4453 1.7344 8.7148 4.8789 11.859 3.1445 3.1406 7.4141 4.8984 11.859 4.8789s8.6992-1.8164 11.816-4.9883l233.33-233.33c3.1719-3.1172 4.9688-7.3711 4.9883-11.816 0.019531-4.4453-1.7383-8.7148-4.8828-11.859-3.1406-3.1406-7.4141-4.8984-11.859-4.8789-4.4453 0.019531-8.6992 1.8164-11.812 4.9883z"/>
  <path d="m321.55 571.55-33.332 33.332h-0.003906c-3.1719 3.1172-4.9648 7.3711-4.9844 11.816-0.023438 4.4453 1.7344 8.7148 4.8789 11.859 3.1445 3.1406 7.4141 4.8984 11.859 4.8789s8.6992-1.8164 11.816-4.9883l33.332-33.332c4.1445-4.2227 5.7422-10.328 4.1914-16.039-1.5469-5.7109-6.0078-10.172-11.719-11.723-5.7148-1.5469-11.816 0.046875-16.039 4.1953z"/>
  <path d="m904.88 604.88-116.67 116.67c-3.1719 3.1133-4.9648 7.3672-4.9844 11.812-0.023438 4.4453 1.7344 8.7188 4.8789 11.859 3.1445 3.1445 7.4141 4.9023 11.859 4.8828s8.6992-1.8164 11.816-4.9883l116.67-116.67h-0.003906c4.1484-4.2227 5.7422-10.324 4.1953-16.039-1.5508-5.7109-6.0117-10.172-11.723-11.719-5.7109-1.5508-11.816 0.046875-16.039 4.1914z"/>
 </g>
</svg>
