<?xml version="1.0" encoding="UTF-8" standalone="no"?>
<svg
   xmlns:dc="http://purl.org/dc/elements/1.1/"
   xmlns:cc="http://creativecommons.org/ns#"
   xmlns:rdf="http://www.w3.org/1999/02/22-rdf-syntax-ns#"
   xmlns:svg="http://www.w3.org/2000/svg"
   xmlns="http://www.w3.org/2000/svg"
   id="svg12"
   version="1.1"
   height="200"
   width="200">
  <metadata
     id="metadata18">
    <rdf:RDF>
      <cc:Work
         rdf:about="">
        <dc:format>image/svg+xml</dc:format>
        <dc:type
           rdf:resource="http://purl.org/dc/dcmitype/StillImage" />
      </cc:Work>
    </rdf:RDF>
  </metadata>
  <defs
     id="defs16" />
  <g
     id="g5">
    <title
       id="title2">background</title>
    <path
       id="canvas_background"
       d="M -1,-1 H 581 V 401 H -1 Z"
       style="fill:none" />
  </g>
  <g
     id="g10">
    <title
       id="title7">Layer 1</title>
    <path
       style="fill:#1c8ca8"
       d="m 84,40 v 12 h 4 V 75.400002 L 64,111.402 40,147.39799 V 160 h 120 v -12.60001 l -24,-36 -24,-35.999996 V 52.003998 h 4 v -12 l -16,-0.0036 z m 3.996101,3.998001 12.003999,0.0018 h 12 v 4 h -4 V 76.5988 l 13.133,19.698997 13.133,19.701003 H 65.725098 L 78.8591,96.297798 91.992104,76.597801 V 47.9958 h -4 z M 105.8671,93.635002 c -0.009,-3.2e-4 -0.74856,0.732597 -1.6426,1.626999 l -1.627,1.625 0.59767,2.226601 c 0.32901,1.224598 0.60338,2.230698 0.60938,2.236298 0.007,0.005 0.99815,0.27501 2.2031,0.59767 1.205,0.32301 2.2091,0.58789 2.2324,0.58789 0.0233,0 0.77232,-0.73136 1.664,-1.625 l 1.6211,-1.624999 -0.5957,-2.212898 c -0.32799,-1.217705 -0.60362,-2.222801 -0.61328,-2.232399 -0.009,-0.0089 -1.0103,-0.283035 -2.2246,-0.609382 -1.2143,-0.326317 -2.2156,-0.595063 -2.2246,-0.595711 z m -16.961003,5.675797 c -0.01423,0 -0.758018,0.732681 -1.652298,1.627001 l -1.625,1.627 0.595711,2.2246 c 0.328339,1.2237 0.602349,2.2278 0.609368,2.2324 0.0071,0.005 1.010505,0.2762 2.2285,0.60157 l 2.214798,0.59178 1.626907,-1.627 c 0.895035,-0.89466 1.626999,-1.644 1.626999,-1.666 0,-0.0217 -0.262665,-1.0202 -0.583992,-2.2168 -0.321342,-1.1966 -0.596031,-2.1866 -0.609367,-2.1992 -0.01245,-0.0125 -1.010201,-0.2867 -2.214806,-0.609376 -1.204994,-0.315963 -2.2024,-0.580085 -2.216797,-0.580085 z M 63.067101,119.9998 h 73.859989 l 1.332,2 1.334,2 H 60.397102 l 1.331997,-2 z m -5.337903,8 H 142.2632 l 1.334,2 1.334,2 H 55.057194 l 1.332,-2 z m -5.337898,8 h 95.205 l 1.334,2 1.334,2 h -100.54 l 1.334,-2 z m -5.326202,8 H 152.92509 l 1.33201,2 1.33399,2 H 44.391102 l 1.333999,-2 z m -3.070301,8 H 155.9948 v 4 H 43.994797 Z"
       id="svg_1" />
  </g>
</svg>
