<?xml version="1.0" encoding="UTF-8"?>
<svg width="1200pt" height="1200pt" version="1.1" viewBox="0 0 1200 1200" xmlns="http://www.w3.org/2000/svg">
 <path d="m140.45 207.13c39.746-33.082 89.836-51.176 141.55-51.133h636c51.723-0.042969 101.82 18.059 141.57 51.152l-459.57 459.01zm493.47 560.83c-9 8.9883-21.203 14.039-33.922 14.039-12.723 0-24.922-5.0508-33.922-14.039l-484.78-484.23c-13.988 29.457-21.266 61.652-21.301 94.262v444c0.066406 58.859 23.477 115.29 65.094 156.91 41.621 41.617 98.047 65.027 156.91 65.094h636c58.859-0.066406 115.29-23.477 156.91-65.094 41.617-41.621 65.027-98.047 65.094-156.91v-444c-0.035156-32.602-7.3047-64.789-21.289-94.238z" fill="#fff"/>
</svg>
