<?xml version="1.0" encoding="UTF-8"?>
<svg width="1200pt" height="1200pt" version="1.1" viewBox="0 0 1200 1200" xmlns="http://www.w3.org/2000/svg">
 <g fill="#12b0fb">
  <path d="m483.9 630.67c-35.539-35.539-71.078-71.078-106.62-106.62v23.203c35.539-35.539 71.078-71.078 106.62-106.62 14.973-14.973-8.2266-38.176-23.203-23.203-35.539 35.539-71.078 71.078-106.62 106.62-6.3203 6.3203-6.3203 16.883 0 23.203 35.539 35.539 71.078 71.078 106.62 106.62 14.973 14.973 38.176-8.2266 23.203-23.203z"/>
  <path d="m747.97 653.88c35.539-35.539 71.078-71.078 106.62-106.62 6.3203-6.3203 6.3203-16.883 0-23.203-35.539-35.539-71.078-71.078-106.62-106.62-14.973-14.973-38.176 8.2266-23.203 23.203 35.539 35.539 71.078 71.078 106.62 106.62v-23.203c-35.539 35.539-71.078 71.078-106.62 106.62-14.973 14.977 8.2305 38.176 23.203 23.203z"/>
  <path d="m568.14 699.3c15.586-47.723 31.168-95.441 46.754-143.16 18.641-57.082 37.281-114.16 55.926-171.25 0.45312-1.3906 0.90625-2.7812 1.3633-4.1719 2.7773-8.5-3.1484-17.895-11.457-20.184-8.9297-2.457-17.406 2.9648-20.184 11.457-15.586 47.719-31.168 95.441-46.754 143.16-18.641 57.082-37.281 114.16-55.926 171.25-0.45312 1.3906-0.90625 2.7812-1.3633 4.1719-2.7773 8.5 3.1445 17.895 11.457 20.184 8.9297 2.457 17.41-2.9648 20.184-11.457z"/>
  <path d="m1072.9 300.53v122.47 225.31 84.613 23.641 5.6953 1.1133 0.14062c0 1.6484-0.070313 3.2891-0.16016 4.9297-0.070313 1.082-0.16406 2.1641-0.28125 3.2422 0.25391-1.6875 0.22266-1.5469-0.085938 0.42187-0.51172 3.1328-1.3203 6.2109-2.2266 9.2539-0.44922 1.5039-0.99219 2.9766-1.5352 4.4492-1.7539 4.7539 1.3281-2.7617-0.80469 1.8086-1.3086 2.8047-2.8789 5.4844-4.5234 8.1016-0.82031 1.3047-1.7188 2.5586-2.6172 3.8086 1.7891-2.4961-1.8906 2.1914-2.2891 2.6367-2.0352 2.3008-4.2773 4.4141-6.5781 6.4453-0.17578 0.15625-4.1289 3.2461-1.4883 1.2695-1.2344 0.92188-2.5234 1.7695-3.8086 2.6172-2.5859 1.6992-5.3281 3.1562-8.1016 4.5234-4.5273 2.2266 2.9062-1.0469-1.8086 0.80469-1.9531 0.76563-3.9531 1.3867-5.9609 1.9844-7.6289 2.2734-11.434 2.3086-19.48 2.3086h-35.621-161.42-224.99-220.57-148.16-25.68-0.32031c-1.6484 0-3.2891-0.070312-4.9297-0.16016-0.23047-0.011719-5.5273-0.59766-2.0781-0.11328-3.6758-0.51953-7.2852-1.4258-10.836-2.4844-1.5039-0.44922-2.9766-0.99219-4.4492-1.5352-4.7539-1.7539 2.7617 1.3281-1.8086-0.80469-2.8047-1.3086-5.4844-2.8789-8.1016-4.5234-1.3047-0.82031-2.5586-1.7188-3.8086-2.6172 2.6758 1.918-1.2969-1.1094-1.4844-1.2695-2.7344-2.3203-5.2227-4.9141-7.5977-7.5977-0.15625-0.17578-3.25-4.1289-1.2695-1.4883-0.92188-1.2344-1.7695-2.5234-2.6172-3.8086-1.6992-2.5859-3.1562-5.3281-4.5234-8.1016-2.2305-4.5273 1.0469 2.9062-0.80469-1.8086-0.57422-1.4609-1.0547-2.957-1.5352-4.4492-1.1367-3.5352-1.8906-7.1797-2.4883-10.836 0.55859 3.4258-0.09375-1.8398-0.10938-2.0781-0.125-1.6406-0.14062-3.2891-0.16016-4.9297v-0.14062-1.2539-141.4-223.99-76.363-17.617c0-1.2891 0.003906-2.5781 0.015624-3.8672 0.015626-1.6367 0.14063-3.2734 0.26563-4.9023 0.39844-5.2383-0.59375 3.1016 0.24609-2.0391 0.51172-3.1328 1.3203-6.2109 2.2266-9.2539 1.8047-6.0586 3.3008-8.9453 7.707-15.648 0.125-0.1875 3.1133-4.2539 1.0742-1.6445 0.94531-1.2109 1.9648-2.3633 2.9844-3.5117 2.0352-2.3008 4.2773-4.4141 6.5781-6.4453 0.17578-0.15625 4.1289-3.25 1.4844-1.2695 1.2344-0.92188 2.5234-1.7695 3.8086-2.6172 3.0195-1.9844 6.2383-3.6523 9.5078-5.1797-3.0312 1.4141 1.6328-0.60156 1.8672-0.6875 1.4766-0.54297 2.9844-0.99219 4.4922-1.4414 3.0547-0.91016 6.1875-1.5234 9.3242-2.0352-3.4258 0.55859 1.8398-0.09375 2.0781-0.10938 1.6406-0.125 3.2891-0.14062 4.9297-0.16016h0.10938 6.8789 42.523 170.38 227.5 216.62 137.75 17.84 0.3125c1.6484 0 3.293 0.070312 4.9414 0.16016 1.082 0.070312 2.1641 0.16406 3.2422 0.28125-3.4219-0.33203 1.7305 0.33203 1.9961 0.38281 2.5977 0.48047 5.1484 1.1836 7.6797 1.9375 1 0.30859 1.9961 0.64062 2.9805 0.99219 0.22656 0.078125 4.9375 2.043 1.8672 0.6875 4.7188 2.082 9.1367 4.7969 13.32 7.7969-1.2734-1.0195-1.1719-0.92578 0.31641 0.27344 1.1914 0.96875 2.3203 2.0117 3.4531 3.0547 1.8828 1.7344 3.6211 3.6211 5.3164 5.5391 0.67188 0.77344 1.3281 1.5625 1.9648 2.3633-2.0859-2.5625 0.94141 1.4492 1.0742 1.6445 1.457 2.125 2.7383 4.3633 3.9688 6.6211 0.48438 0.91406 0.95312 1.8359 1.3984 2.7695 2.2266 4.5273-1.0469-2.9062 0.80469 1.8086 0.95703 2.4414 1.707 4.957 2.4023 7.4844 0.70703 2.5625 1.1914 5.1797 1.6172 7.8008-0.55859-3.4258 0.09375 1.8398 0.11328 2.0781 0.13281 1.6289 0.14844 3.2773 0.16406 4.9219 0.097656 8.9414 7.3906 16.406 16.406 16.406 8.8711 0 16.504-7.4609 16.406-16.406-0.54297-50.363-41.758-91.414-92.211-91.414h-28.41-151.84-221.88-223.92-157.96-33c-42.457 0-80.336 27.77-90.844 69.414-4 15.848-2.6719 33.324-2.6719 49.562v82.535 225.15 127.64c0 50.125 41.863 91.512 91.848 91.512h26.465 149.22 220.95 224.7 160.44 34.879c40.527 0 75.266-23.711 89.32-61.863 6.3125-17.137 4.9219-36.242 4.9219-54.223v-80.391-224.86-132.67-0.39062c0-8.9453-7.4609-16.406-16.406-16.406-8.9531 0-16.418 7.4609-16.418 16.406z"/>
  <path d="m671.99 838.51v172.97 13.258l16.406-16.406h-165.49-2.6328l16.406 16.406v-172.97-13.258l-16.406 16.406h165.49 2.6328c8.9453 0 16.406-7.4609 16.406-16.406 0-8.9453-7.4609-16.406-16.406-16.406h-165.49-2.6328c-8.9453 0-16.406 7.4609-16.406 16.406v172.97 13.258c0 8.9453 7.4609 16.406 16.406 16.406h165.49 2.6328c8.9453 0 16.406-7.4609 16.406-16.406v-172.97-13.258c0-8.9453-7.4609-16.406-16.406-16.406-8.9453 0-16.406 7.4648-16.406 16.406z"/>
  <path d="m394.83 1041.1h131.07 220.04 67.898c8.9453 0 16.406-7.4609 16.406-16.406 0-8.9453-7.4609-16.406-16.406-16.406h-131.07-220.04-67.898c-8.9453 0-16.406 7.4609-16.406 16.406-0.003907 8.9414 7.4609 16.406 16.402 16.406z"/>
 </g>
</svg>
