<?xml version="1.0" encoding="UTF-8"?>
<svg width="1200pt" height="1200pt" version="1.1" viewBox="0 0 1200 1200" xmlns="http://www.w3.org/2000/svg">
 <path d="m187.43 0c-9.9062 0.019531-19.402 3.9609-26.414 10.957-7.0156 7-10.973 16.488-11.012 26.398v1125c-0.039062 9.9609 3.8867 19.523 10.906 26.586s16.562 11.043 26.52 11.062h824.93c9.9961 0.039062 19.594-3.918 26.664-10.984s11.023-16.668 10.984-26.664v-837.38h-287.62c-20.719 0.074219-37.574-16.637-37.645-37.352l-0.003906-287.62zm612.3 21.824v228.37h228.3zm-314.72 211.82c73.984 0 134.77 60.781 134.77 134.77 0 34.684-13.695 66.172-35.523 90.16 47.586 32.074 79.027 86.484 79.027 147.95v104.37h0.003906c0.039062 9.9609-3.8867 19.523-10.906 26.586s-16.562 11.043-26.52 11.062h-281.77c-9.9453-0.039062-19.465-4.0273-26.473-11.09-7.0039-7.0586-10.918-16.613-10.879-26.559v-104.37c0-61.465 31.441-115.88 79.027-147.95-21.832-23.988-35.598-55.473-35.594-90.16 0-73.984 60.855-134.77 134.84-134.77zm0 75c-33.453 0-59.84 26.312-59.84 59.766s26.387 59.84 59.84 59.84c33.453 0 59.766-26.387 59.766-59.84s-26.312-59.766-59.766-59.766zm0 194.61c-57.922 0-103.27 45.348-103.27 103.27v66.945h206.47v-66.945c0-57.922-45.277-103.27-103.2-103.27zm-142.02 321.39h513.79c13.203 0.29297 25.273 7.5039 31.793 18.988 6.5156 11.48 6.5156 25.543 0 37.027-6.5195 11.48-18.59 18.691-31.793 18.984h-513.79c-10.09 0.22656-19.844-3.625-27.059-10.684-7.2148-7.0586-11.281-16.723-11.281-26.816 0-10.09 4.0664-19.758 11.281-26.812 7.2148-7.0586 16.969-10.91 27.059-10.688zm-3.5898 151.39 0.003906 0.003906c1.1953-0.058594 2.3906-0.058594 3.5859 0h513.79c13.398 0.019531 25.77 7.1758 32.461 18.781 6.6953 11.605 6.6953 25.898 0 37.504-6.6914 11.605-19.062 18.766-32.461 18.785h-513.79c-13.395 0.62109-26.109-5.9492-33.355-17.234-7.2461-11.285-7.9297-25.574-1.793-37.5s18.164-19.676 31.562-20.336z" fill="#fff"/>
</svg>
